{
	"asset":{
		"generator":"Khronos glTF Blender I/O v3.6.28",
		"version":"2.0"
	},
	"scene":0,
	"scenes":[
		{
			"name":"Scene",
			"nodes":[
				0
			]
		}
	],
	"nodes":[
		{
			"mesh":0,
			"name":"button",
			"rotation":[
				0,
				0,
				-0.9999902844429016,
				0.004427375737577677
			],
			"scale":[
				0.018068896606564522,
				0.09112942963838577,
				0.00875104870647192
			],
			"translation":[
				0.008847519755363464,
				0.23245525360107422,
				-0.6203106045722961
			]
		}
	],
	"materials":[
		{
			"doubleSided":true,
			"name":"Material.003",
			"pbrMetallicRoughness":{
				"baseColorFactor":[
					0.004429232329130173,
					0.004429232329130173,
					0.004429232329130173,
					1
				],
				"metallicFactor":0,
				"roughnessFactor":0.5
			}
		},
		{
			"doubleSided":true,
			"name":"Material.002",
			"pbrMetallicRoughness":{
				"baseColorFactor":[
					0.0021397266536951065,
					0.0021397266536951065,
					0.0021397266536951065,
					1
				],
				"metallicFactor":0,
				"roughnessFactor":0.5
			}
		},
		{
			"doubleSided":true,
			"name":"Material.001",
			"pbrMetallicRoughness":{
				"baseColorTexture":{
					"index":0
				},
				"metallicFactor":0,
				"roughnessFactor":0.5
			}
		}
	],
	"meshes":[
		{
			"name":"Cube.002",
			"primitives":[
				{
					"attributes":{
						"POSITION":0,
						"NORMAL":1,
						"TEXCOORD_0":2
					},
					"indices":3,
					"material":0
				},
				{
					"attributes":{
						"POSITION":4,
						"NORMAL":5,
						"TEXCOORD_0":6
					},
					"indices":7,
					"material":1
				},
				{
					"attributes":{
						"POSITION":8,
						"NORMAL":9,
						"TEXCOORD_0":10
					},
					"indices":11,
					"material":2
				}
			]
		}
	],
	"textures":[
		{
			"sampler":0,
			"source":0
		}
	],
	"images":[
		{
			"mimeType":"image/jpeg",
			"name":"flutter-image",
			"uri":"flutter-image.jpg"
		}
	],
	"accessors":[
		{
			"bufferView":0,
			"componentType":5126,
			"count":48,
			"max":[
				1,
				1,
				1.0000077486038208
			],
			"min":[
				-1,
				-3.54274845123291,
				-1
			],
			"type":"VEC3"
		},
		{
			"bufferView":1,
			"componentType":5126,
			"count":48,
			"type":"VEC3"
		},
		{
			"bufferView":2,
			"componentType":5126,
			"count":48,
			"type":"VEC2"
		},
		{
			"bufferView":3,
			"componentType":5123,
			"count":72,
			"type":"SCALAR"
		},
		{
			"bufferView":4,
			"componentType":5126,
			"count":218,
			"max":[
				2.45436429977417,
				19.6811580657959,
				140.80731201171875
			],
			"min":[
				-2.5953867435455322,
				-6.495796203613281,
				0.9609832763671875
			],
			"type":"VEC3"
		},
		{
			"bufferView":5,
			"componentType":5126,
			"count":218,
			"type":"VEC3"
		},
		{
			"bufferView":6,
			"componentType":5126,
			"count":218,
			"type":"VEC2"
		},
		{
			"bufferView":7,
			"componentType":5123,
			"count":414,
			"type":"SCALAR"
		},
		{
			"bufferView":8,
			"componentType":5126,
			"count":20,
			"max":[
				-2.780947685241699,
				18.90091323852539,
				135.44366455078125
			],
			"min":[
				-2.781644344329834,
				-5.229971408843994,
				6.528106689453125
			],
			"type":"VEC3"
		},
		{
			"bufferView":9,
			"componentType":5126,
			"count":20,
			"type":"VEC3"
		},
		{
			"bufferView":10,
			"componentType":5126,
			"count":20,
			"type":"VEC2"
		},
		{
			"bufferView":11,
			"componentType":5123,
			"count":54,
			"type":"SCALAR"
		}
	],
	"bufferViews":[
		{
			"buffer":0,
			"byteLength":576,
			"byteOffset":0,
			"target":34962
		},
		{
			"buffer":0,
			"byteLength":576,
			"byteOffset":576,
			"target":34962
		},
		{
			"buffer":0,
			"byteLength":384,
			"byteOffset":1152,
			"target":34962
		},
		{
			"buffer":0,
			"byteLength":144,
			"byteOffset":1536,
			"target":34963
		},
		{
			"buffer":0,
			"byteLength":2616,
			"byteOffset":1680,
			"target":34962
		},
		{
			"buffer":0,
			"byteLength":2616,
			"byteOffset":4296,
			"target":34962
		},
		{
			"buffer":0,
			"byteLength":1744,
			"byteOffset":6912,
			"target":34962
		},
		{
			"buffer":0,
			"byteLength":828,
			"byteOffset":8656,
			"target":34963
		},
		{
			"buffer":0,
			"byteLength":240,
			"byteOffset":9484,
			"target":34962
		},
		{
			"buffer":0,
			"byteLength":240,
			"byteOffset":9724,
			"target":34962
		},
		{
			"buffer":0,
			"byteLength":160,
			"byteOffset":9964,
			"target":34962
		},
		{
			"buffer":0,
			"byteLength":108,
			"byteOffset":10124,
			"target":34963
		}
	],
	"samplers":[
		{
			"magFilter":9729,
			"minFilter":9987
		}
	],
	"buffers":[
		{
			"byteLength":10232,
			"uri":"mobile-flutter9.bin"
		}
	]
}
