{
	"asset":{
		"generator":"Khronos glTF Blender I/O v3.6.28",
		"version":"2.0"
	},
	"scene":0,
	"scenes":[
		{
			"name":"Scene",
			"nodes":[
				0
			]
		}
	],
	"nodes":[
		{
			"mesh":0,
			"name":"Plane",
			"rotation":[
				0,
				0,
				0.710228443145752,
				0.703971266746521
			],
			"scale":[
				1.192745327949524,
				1,
				0.6119009852409363
			],
			"translation":[
				-0.030171796679496765,
				-0.3687008023262024,
				0
			]
		}
	],
	"materials":[
		{
			"doubleSided":true,
			"name":"Material.002",
			"pbrMetallicRoughness":{
				"baseColorFactor":[
					0.0021397266536951065,
					0.0021397266536951065,
					0.0021397266536951065,
					1
				],
				"metallicFactor":0,
				"roughnessFactor":0.5
			}
		},
		{
			"doubleSided":true,
			"name":"Material.001",
			"pbrMetallicRoughness":{
				"baseColorTexture":{
					"index":0
				},
				"metallicFactor":0,
				"roughnessFactor":0.5
			}
		},
		{
			"doubleSided":true,
			"name":"Material.003",
			"pbrMetallicRoughness":{
				"baseColorFactor":[
					0.004429232329130173,
					0.004429232329130173,
					0.004429232329130173,
					1
				],
				"metallicFactor":0,
				"roughnessFactor":0.5
			}
		}
	],
	"meshes":[
		{
			"name":"Plane",
			"primitives":[
				{
					"attributes":{
						"POSITION":0,
						"NORMAL":1,
						"TEXCOORD_0":2
					},
					"indices":3,
					"material":0
				},
				{
					"attributes":{
						"POSITION":4,
						"NORMAL":5,
						"TEXCOORD_0":6
					},
					"indices":7,
					"material":1
				},
				{
					"attributes":{
						"POSITION":8,
						"NORMAL":9,
						"TEXCOORD_0":10
					},
					"indices":11,
					"material":2
				}
			]
		}
	],
	"textures":[
		{
			"sampler":0,
			"source":0
		}
	],
	"images":[
		{
			"mimeType":"image/png",
			"name":"flutter-image",
			"uri":"flutter-image.png"
		}
	],
	"accessors":[
		{
			"bufferView":0,
			"componentType":5126,
			"count":220,
			"max":[
				1,
				0,
				1
			],
			"min":[
				-1,
				-0.09123013913631439,
				-1
			],
			"type":"VEC3"
		},
		{
			"bufferView":1,
			"componentType":5126,
			"count":220,
			"type":"VEC3"
		},
		{
			"bufferView":2,
			"componentType":5126,
			"count":220,
			"type":"VEC2"
		},
		{
			"bufferView":3,
			"componentType":5123,
			"count":414,
			"type":"SCALAR"
		},
		{
			"bufferView":4,
			"componentType":5126,
			"count":20,
			"max":[
				0.9032874703407288,
				-0.09459587186574936,
				0.9232920408248901
			],
			"min":[
				-0.9403867721557617,
				-0.09459587186574936,
				-0.920382022857666
			],
			"type":"VEC3"
		},
		{
			"bufferView":5,
			"componentType":5126,
			"count":20,
			"type":"VEC3"
		},
		{
			"bufferView":6,
			"componentType":5126,
			"count":20,
			"type":"VEC2"
		},
		{
			"bufferView":7,
			"componentType":5123,
			"count":54,
			"type":"SCALAR"
		},
		{
			"bufferView":8,
			"componentType":5126,
			"count":48,
			"max":[
				0.7743781805038452,
				-0.026266638189554214,
				-0.9994417428970337
			],
			"min":[
				0.427297979593277,
				-0.06240679696202278,
				-1.0280447006225586
			],
			"type":"VEC3"
		},
		{
			"bufferView":9,
			"componentType":5126,
			"count":48,
			"type":"VEC3"
		},
		{
			"bufferView":10,
			"componentType":5126,
			"count":48,
			"type":"VEC2"
		},
		{
			"bufferView":11,
			"componentType":5123,
			"count":72,
			"type":"SCALAR"
		}
	],
	"bufferViews":[
		{
			"buffer":0,
			"byteLength":2640,
			"byteOffset":0,
			"target":34962
		},
		{
			"buffer":0,
			"byteLength":2640,
			"byteOffset":2640,
			"target":34962
		},
		{
			"buffer":0,
			"byteLength":1760,
			"byteOffset":5280,
			"target":34962
		},
		{
			"buffer":0,
			"byteLength":828,
			"byteOffset":7040,
			"target":34963
		},
		{
			"buffer":0,
			"byteLength":240,
			"byteOffset":7868,
			"target":34962
		},
		{
			"buffer":0,
			"byteLength":240,
			"byteOffset":8108,
			"target":34962
		},
		{
			"buffer":0,
			"byteLength":160,
			"byteOffset":8348,
			"target":34962
		},
		{
			"buffer":0,
			"byteLength":108,
			"byteOffset":8508,
			"target":34963
		},
		{
			"buffer":0,
			"byteLength":576,
			"byteOffset":8616,
			"target":34962
		},
		{
			"buffer":0,
			"byteLength":576,
			"byteOffset":9192,
			"target":34962
		},
		{
			"buffer":0,
			"byteLength":384,
			"byteOffset":9768,
			"target":34962
		},
		{
			"buffer":0,
			"byteLength":144,
			"byteOffset":10152,
			"target":34963
		}
	],
	"samplers":[
		{
			"magFilter":9729,
			"minFilter":9987
		}
	],
	"buffers":[
		{
			"byteLength":10296,
			"uri":"mobile-flutter3.bin"
		}
	]
}
